# xmcd
#
# Track frame offsets: 
#        300
#        19021
#        36694
#        55724
#        80412
#        97084
#        118983
#        140369
#        155488
#        172771
#        190362
#
# Disc length: 2734 seconds
#
# Revision: 5
# Processed by: cddbd v1.5.2PL0 Copyright (c) Steve Scherf et al.
# Submitted via: ExactAudioCopy v0.99pb5
#
DISCID=950aaa0b
DTITLE=Alannah Myles - Arival
DYEAR=1997
DGENRE=Pop Female Singer-Songwriter
TTITLE0=Motherload
TTITLE1=Bad 4 you
TTITLE2=Dance Of Love
TTITLE3=The Great Divide
TTITLE4=Chained (Final Rescue)
TTITLE5=Why Have Angels Denied You
TTITLE6=What Am I Gonna Do With You
TTITLE7=Everything Missing
TTITLE8=Kisses Are Weapons
TTITLE9=Honesty
TTITLE10=Yellow Rose
EXTD=YEAR: 1998
EXTT0=
EXTT1=
EXTT2=
EXTT3=
EXTT4=
EXTT5=
EXTT6=
EXTT7=
EXTT8=
EXTT9=
EXTT10=
PLAYORDER=
